<svg width="19" height="22" viewBox="0 0 19 22" fill="none" xmlns="http://www.w3.org/2000/svg">
<path d="M18 8.97264C18 15.2366 9.5 20.6058 9.5 20.6058C9.5 20.6058 1 15.2366 1 8.97264C1 6.83667 1.89553 4.78818 3.48959 3.27782C5.08365 1.76746 7.24566 0.918945 9.5 0.918945C11.7543 0.918945 13.9163 1.76746 15.5104 3.27782C17.1045 4.78818 18 6.83667 18 8.97264Z" stroke="#666666" stroke-linecap="round" stroke-linejoin="round"/>
<path d="M9.49996 11.657C11.0648 11.657 12.3333 10.4551 12.3333 8.97241C12.3333 7.48976 11.0648 6.28784 9.49996 6.28784C7.93515 6.28784 6.66663 7.48976 6.66663 8.97241C6.66663 10.4551 7.93515 11.657 9.49996 11.657Z" stroke="#666666" stroke-linecap="round" stroke-linejoin="round"/>
</svg>
